<svg width="281" height="60" viewBox="0 0 281 60" fill="none" xmlns="http://www.w3.org/2000/svg">
<g clip-path="url(#clip0_1_344)">
<path d="M163.751 37.4744C163.751 41.57 163.751 45.3242 163.751 49.0785C163.751 50.3754 163.683 51.1945 161.971 51.1945C160.327 51.1945 159.847 50.5802 159.847 49.0102C159.916 40.1365 159.847 31.2628 159.916 22.4573C159.916 21.6382 159.573 20.4095 160.943 20.4095C161.902 20.4095 163.409 19.5222 163.683 21.2969C163.888 22.5938 164.094 22.3891 165.052 21.843C170.326 18.8396 174.983 19.4539 178.202 23.3447C181.215 27.0307 181.147 33.3788 177.996 36.9283C174.435 40.8191 169.299 41.0921 163.751 37.4744ZM176.284 29.8293C176.216 25.8703 173.819 23.3447 170.052 23.3447C166.285 23.3447 163.614 26.1433 163.751 30.1706C163.82 33.9932 166.422 36.6553 170.052 36.6553C173.887 36.6553 176.353 33.9249 176.284 29.8293Z" fill="#F2F3F7"/>
<path d="M138.754 37.4744C138.754 41.7065 138.754 45.3242 138.754 48.8737C138.754 50.3072 138.685 51.1945 136.836 51.1945C134.85 51.1945 135.055 50.0341 135.055 48.7372C135.055 40 135.055 31.2628 135.055 22.5939C135.055 21.843 134.507 20.6143 135.877 20.4096C136.836 20.273 138.274 19.7952 138.617 20.9556C139.165 22.8669 139.781 21.843 140.603 21.3652C144.986 18.8396 149.78 19.5222 152.93 23.1399C156.081 26.8259 156.218 32.9693 153.136 36.6553C150.122 40.273 145.191 41.1604 140.808 38.8396C140.397 38.5666 139.918 38.2253 138.754 37.4744ZM138.822 30.1024C138.891 33.9249 141.425 36.6553 145.054 36.7236C148.89 36.7918 151.424 34.0614 151.424 29.9659C151.424 25.9386 148.753 23.2765 144.849 23.413C141.219 23.4812 138.754 26.1434 138.822 30.1024Z" fill="#F2F3F7"/>
<path d="M101.291 22.5256C101.223 20.7508 102.113 20.2048 103.757 20.3413C105.949 20.4778 105.195 22.0478 105.195 23.1399C105.264 30.8532 105.264 38.5665 105.195 46.2799C105.195 47.5085 105.743 49.0785 103.415 49.0785C101.155 49.0785 101.497 47.645 101.497 46.3481C101.497 43.5495 101.497 40.6826 101.497 37.4744C98.4836 39.5222 95.6071 40.8874 92.1828 39.8635C89.8543 39.2491 88.0736 38.0205 86.7039 36.1092C83.9644 32.2867 84.4438 26.1433 87.5942 22.8669C91.1555 19.0444 96.018 18.9078 101.291 22.5256ZM101.428 29.7611C101.36 25.8703 98.8945 23.2764 95.1277 23.2764C91.2925 23.2764 88.69 26.0751 88.827 30.1024C88.8954 33.9249 91.5664 36.6553 95.1962 36.6553C98.963 36.6553 101.497 33.8566 101.428 29.7611Z" fill="#F2F3F7"/>
<path d="M267.508 22.0478C269.22 21.2969 270.385 20.6143 271.617 20.2048C276.411 18.7713 280.452 21.3652 280.795 26.3481C281.068 30.1707 280.863 34.0614 281 37.9522C281 39.2492 280.658 39.7952 279.288 39.7952C277.987 39.7952 277.165 39.5905 277.233 37.9522C277.37 34.744 277.302 31.6041 277.233 28.3959C277.233 25.7338 276.206 23.686 273.261 23.413C270.453 23.0717 268.125 24.7782 267.851 27.8498C267.508 31.1263 267.577 34.4027 267.645 37.6792C267.714 39.3857 267.029 39.727 265.454 39.7952C263.741 39.8635 263.741 38.9079 263.741 37.6792C263.741 28.8055 263.741 19.9318 263.741 11.1263C263.741 9.69284 263.81 8.80547 265.659 8.87373C267.508 8.87373 267.645 9.7611 267.645 11.1946C267.508 14.6075 267.508 18.157 267.508 22.0478Z" fill="#F2F3F7"/>
<path d="M200.871 32.2867C200.871 34.1297 200.871 35.9044 200.871 37.7474C200.871 38.43 201.487 39.4539 200.186 39.6587C199.433 39.7952 198.2 40.0683 197.994 39.3174C197.241 36.587 196.214 38.5665 195.255 39.0444C192.31 40.4778 189.365 40.8191 186.489 38.9761C184.366 37.6792 183.818 35.6997 184.16 33.3788C184.708 29.7611 187.516 28.7372 190.461 28.0546C191.968 27.7133 193.611 27.7816 195.186 27.5768C195.871 27.5085 196.899 27.9181 197.173 26.8259C197.378 25.8703 197.036 24.9829 196.351 24.3686C194.365 22.4573 192.036 22.7304 189.639 23.5495C189.023 23.7543 188.475 24.3003 187.858 24.5734C186.694 25.0512 186.215 24.0956 185.667 23.413C184.845 22.3891 185.872 22.0478 186.489 21.6382C189.913 19.6587 193.543 19.1126 197.241 20.7508C199.364 21.7065 200.597 23.413 200.665 25.802C200.802 27.9863 200.802 30.1024 200.871 32.2867C200.802 32.2867 200.802 32.2867 200.871 32.2867ZM191.968 37.0648C195.049 37.0648 197.173 34.8805 197.31 32.0819C197.378 29.9659 195.94 30.3754 194.844 30.4437C190.392 30.4437 187.653 31.8771 187.858 34.1297C187.995 36.7235 189.981 36.9966 191.968 37.0648Z" fill="#F2F3F7"/>
<path d="M231.484 31.3993C229.909 31.3993 228.265 31.3311 226.69 31.3993C225.868 31.4676 224.636 30.8533 224.362 32.0137C224.156 32.8328 224.704 33.7201 225.321 34.471C227.444 37.1331 231.553 37.7474 234.429 35.3584C236.004 34.0614 237.032 34.3345 237.991 35.6314C239.086 37.0649 237.374 37.6109 236.621 38.157C232.854 41.0922 226.759 40.8191 223.334 37.6792C219.979 34.5393 219.157 28.5324 221.622 24.5734C224.156 20.4778 229.293 18.7713 233.881 20.5461C237.443 21.9113 239.977 26.2799 239.703 30.1024C239.634 31.5358 238.881 31.4676 237.991 31.4676C235.799 31.3993 233.676 31.3993 231.484 31.3993ZM229.909 28.4642C231.073 28.4642 232.169 28.3959 233.265 28.4642C235.73 28.669 235.936 27.6451 235.046 25.7338C233.47 22.3208 228.265 21.843 225.594 24.8464C224.841 25.7338 224.019 26.7577 224.43 27.8498C224.841 29.0102 226.211 28.3277 227.17 28.3959C228.06 28.5324 229.019 28.4642 229.909 28.4642Z" fill="#F2F3F7"/>
<path d="M130.33 30.1024C130.33 35.6997 125.81 40.0683 120.057 40.0683C114.509 40.0683 109.784 35.4266 109.784 29.9659C109.715 24.4369 114.578 19.727 120.399 19.7952C125.947 19.9317 130.33 24.4369 130.33 30.1024ZM126.426 30.1707C126.495 26.2116 124.097 23.4812 120.399 23.3447C116.632 23.2082 113.756 26.0068 113.756 30.0341C113.756 33.8567 116.427 36.6553 120.057 36.7236C123.755 36.7236 126.358 34.0614 126.426 30.1707Z" fill="#F2F3F7"/>
<path d="M253.811 19.8635C255.181 19.9317 257.098 20.273 258.673 21.3652C259.358 21.843 261.002 22.1843 259.906 23.5495C259.153 24.5051 258.468 25.6655 256.619 24.6416C253.058 22.6621 250.318 23.1399 248.469 25.6655C246.62 28.1229 246.688 32.2867 248.606 34.5392C250.661 36.9283 253.468 37.4061 256.824 35.4266C258.536 34.4027 259.153 35.4949 259.838 36.3822C261.002 37.8839 259.358 38.2935 258.536 38.8396C255.112 41.0239 249.907 40.6143 246.688 38.0887C243.401 35.4949 242.168 30.6485 243.675 26.3481C245.113 22.3208 248.88 19.7952 253.811 19.8635Z" fill="#F2F3F7"/>
<path d="M212.308 40.1365C209.569 40.0683 207.788 38.43 207.651 34.9488C207.514 31.8771 207.583 28.8055 207.651 25.7338C207.719 24.1638 207.309 23.3447 205.596 23.5495C204.364 23.686 203.405 23.6178 203.405 21.843C203.405 20 204.569 20.2048 205.665 20.273C207.446 20.4096 207.651 19.5222 207.719 18.0205C207.788 16.7918 206.761 14.9488 209.432 14.8806C211.966 14.8123 211.486 16.5188 211.418 17.8157C211.281 19.7952 212.103 20.4096 214.02 20.273C215.048 20.2048 216.623 19.5222 216.691 21.7065C216.76 23.686 215.527 23.6178 214.226 23.4812C211.897 23.1399 211.281 24.2321 211.418 26.3481C211.623 28.8055 211.486 31.3311 211.623 33.8567C211.692 35.5631 212.514 36.587 214.363 36.587C215.321 36.587 216.965 35.4266 216.965 37.8157C216.965 39.8635 215.527 39.7952 214.157 40C213.746 40.2048 213.404 40.1365 212.308 40.1365Z" fill="#F2F3F7"/>
<path d="M32.1886 46.2116C29.5177 46.0751 26.2303 46.4847 22.943 45.9386C17.4641 44.9829 13.7658 40.6826 13.7658 35.3584C13.7658 30.1024 17.601 25.529 22.943 24.6416C24.4497 24.3686 25.5455 24.3004 26.4358 22.6621C30.6819 14.9488 38.5579 11.8771 46.3653 14.6758C53.6934 17.2696 58.008 24.4369 56.9807 32.4915C56.0219 40 49.3103 45.7338 40.681 46.2116C38.0785 46.3481 35.4075 46.2116 32.1886 46.2116ZM32.942 40.8191C32.942 40.7509 32.942 40.7509 32.942 40.8191C35.5445 40.7509 38.2155 40.9556 40.8179 40.7509C46.7763 40.273 51.1594 36.1775 51.6388 30.785C52.1182 25.4608 48.5569 20.4778 43.4889 19.3174C37.873 18.0205 32.668 20.7509 30.4765 26.5529C29.5177 29.0785 28.2849 30.1707 25.477 29.9659C21.6417 29.6928 19.2447 31.8089 19.1077 35.0171C18.9708 38.2253 21.2308 40.4778 25.066 40.6826C27.6685 40.8874 30.3395 40.8191 32.942 40.8191Z" fill="#F2F3F7"/>
<path d="M32.942 40.8191C30.3395 40.8191 27.6685 40.9556 25.066 40.8191C21.2993 40.6143 19.0392 38.2935 19.1077 35.1536C19.2447 31.9454 21.6417 29.8293 25.477 30.1024C28.2849 30.3072 29.5177 29.1467 30.4765 26.6894C32.668 20.8874 37.873 18.0887 43.4889 19.4539C48.5569 20.6826 52.1182 25.5973 51.6388 30.9215C51.1594 36.1775 46.7763 40.273 40.8179 40.6826C38.2155 40.8874 35.5445 40.7508 32.942 40.8191C32.942 40.7508 32.942 40.7508 32.942 40.8191Z" fill="#6FBB7D"/>
</g>
<defs>
<clipPath id="clip0_1_344">
<rect width="281" height="60" fill="white"/>
</clipPath>
</defs>
</svg>

