<svg width="45" height="33" viewBox="0 0 45 33" fill="none" xmlns="http://www.w3.org/2000/svg">
<path d="M19.1715 32.7116C16.5005 32.5751 13.2132 32.9847 9.92584 32.4386C4.44693 31.483 0.748657 27.1826 0.748657 21.8584C0.748657 16.6024 4.5839 12.0291 9.92584 11.1417C11.4325 10.8686 12.5283 10.8004 13.4187 9.16216C17.6648 1.44885 25.5408 -1.62283 33.3482 1.17581C40.6763 3.76967 44.9909 10.9369 43.9636 18.9915C43.0048 26.5 36.2931 32.2338 27.6638 32.7116C25.0614 32.8482 22.3904 32.7116 19.1715 32.7116ZM19.9249 27.3192C19.9249 27.2509 19.9249 27.2509 19.9249 27.3192C22.5274 27.2509 25.1983 27.4557 27.8008 27.2509C33.7591 26.7731 38.1423 22.6775 38.6217 17.285C39.1011 11.9608 35.5398 6.97786 30.4718 5.81745C24.8559 4.52052 19.6509 7.2509 17.4594 13.0529C16.5005 15.5785 15.2678 16.6707 12.4598 16.4659C8.6246 16.1929 6.22757 18.3089 6.0906 21.5171C5.95363 24.7253 8.21368 26.9779 12.0489 27.1826C14.6514 27.3874 17.3224 27.3192 19.9249 27.3192Z" fill="#F2F3F7"/>
<path d="M19.9249 27.3191C17.3224 27.3191 14.6514 27.4556 12.0489 27.3191C8.28219 27.1143 6.02214 24.7935 6.09062 21.6536C6.2276 18.4454 8.62463 16.3293 12.4599 16.6024C15.2678 16.8072 16.5006 15.6467 17.4594 13.1894C19.6509 7.38736 24.8559 4.58873 30.4718 5.95391C35.5398 7.18258 39.1011 12.0973 38.6217 17.4215C38.1423 22.6775 33.7592 26.773 27.8008 27.1826C25.1984 27.3874 22.5274 27.2508 19.9249 27.3191C19.9249 27.2508 19.9249 27.2508 19.9249 27.3191Z" fill="#6FBB7D"/>
</svg>
